<svg width="541" height="529" viewBox="0 0 541 529" fill="none" xmlns="http://www.w3.org/2000/svg">
<g filter="url(#filter0_d_0_273)">
<mask id="mask0_0_273" style="mask-type:luminance" maskUnits="userSpaceOnUse" x="4" y="53" width="533" height="468">
<path fill-rule="evenodd" clip-rule="evenodd" d="M4.00064 53.948H536.615V520.035H4.00064V53.948Z" fill="white"/>
</mask>
<g mask="url(#mask0_0_273)">
<path fill-rule="evenodd" clip-rule="evenodd" d="M503.715 308.198C502.065 310.848 500.419 313.453 498.664 316.048C483.314 339.103 464.264 361.248 443.169 381.603C442.215 382.548 441.215 383.503 440.22 384.448C437.215 387.298 434.115 390.153 431.014 392.898C425.669 397.803 420.164 402.548 414.564 407.098C411.614 409.598 408.569 412.053 405.564 414.448C370.669 442.053 333.37 466.203 296.615 484.398C285.22 490.103 273.819 495.198 262.569 499.598C203.864 522.853 149.219 528.303 111.52 505.248C99.5145 497.948 89.2645 487.748 81.1145 474.303C79.8145 472.148 78.5145 469.998 77.2145 467.853C65.1695 447.698 53.6645 427.453 43.5645 407.098C41.1645 402.348 38.9195 397.653 36.7195 392.898C0.0694962 314.148 -13.8855 234.448 38.0645 156.048C58.2645 125.553 91.4195 101.803 131.215 84.998C142.57 80.153 154.414 75.948 166.719 72.298C172.77 70.398 178.865 68.748 185.115 67.253C192.969 65.253 200.964 63.503 209.064 61.998C215.27 60.803 221.464 59.753 227.714 58.848C230.314 58.503 232.914 58.153 235.514 57.798C253.964 55.453 272.664 54.148 291.27 54.003C293.715 53.948 296.164 53.948 298.569 53.948C309.819 54.003 320.965 54.448 331.965 55.353C334.915 55.553 337.864 55.803 340.814 56.148C396.964 61.603 448.465 77.698 483.465 104.403C491.115 110.253 497.969 116.548 503.914 123.403C505.02 124.653 506.069 125.903 507.064 127.198C507.414 127.598 507.719 127.998 508.064 128.403C515.314 137.498 521.115 146.903 525.47 156.503C547.72 204.953 534.715 258.398 503.715 308.198Z" fill="#FDE6D6"/>
</g>
<path fill-rule="evenodd" clip-rule="evenodd" d="M390.54 454.638C377.05 468.778 367.445 488.998 381.955 500.978C398.16 514.353 431.585 511.248 448.865 486.013C459.91 469.893 465.755 444.408 453.52 430.113C443.045 417.873 407.09 437.288 390.54 454.638Z" fill="#E8E5EA"/>
<path fill-rule="evenodd" clip-rule="evenodd" d="M194.366 450.952C191.016 451.097 187.616 451.202 184.316 451.202C183.966 451.202 183.716 451.497 183.716 451.852C183.716 452.147 183.966 452.452 184.316 452.452C187.666 452.452 191.016 452.347 194.416 452.202C194.766 452.202 195.016 451.897 195.016 451.552C194.966 451.251 194.666 450.952 194.366 450.952ZM174.316 451.051C170.916 450.952 167.516 450.751 164.316 450.551C163.866 450.501 163.666 450.751 163.616 451.097C163.616 451.452 163.866 451.751 164.216 451.801C167.466 452.001 170.866 452.202 174.266 452.301C174.616 452.301 174.916 452.051 174.916 451.697C174.916 451.352 174.666 451.051 174.316 451.051ZM214.366 449.501C211.016 449.847 207.666 450.151 204.366 450.401C204.016 450.401 203.766 450.697 203.766 451.051C203.816 451.401 204.066 451.651 204.416 451.651H204.466C207.766 451.401 211.116 451.097 214.466 450.751C214.816 450.697 215.066 450.401 215.066 450.047C215.016 449.702 214.716 449.447 214.366 449.501ZM154.316 449.551C151.016 449.197 147.666 448.702 144.416 448.146C144.066 448.102 143.766 448.301 143.666 448.651C143.616 448.996 143.866 449.301 144.216 449.352C147.466 449.952 150.816 450.401 154.166 450.801H154.266C154.566 450.801 154.816 450.602 154.866 450.246C154.916 449.901 154.666 449.597 154.316 449.551ZM234.266 446.852C230.866 447.347 227.566 447.852 224.316 448.301C223.966 448.347 223.716 448.651 223.766 448.996C223.816 449.301 224.116 449.551 224.416 449.551H224.466C227.716 449.102 231.066 448.597 234.466 448.051C234.766 448.001 235.016 447.702 234.966 447.347C234.916 447.001 234.616 446.801 234.266 446.852ZM134.616 446.151C131.316 445.401 128.066 444.551 124.916 443.651C124.566 443.551 124.216 443.702 124.116 444.051C124.016 444.396 124.216 444.751 124.566 444.847C127.616 445.697 130.716 446.551 133.866 447.301C134.016 447.347 134.166 447.347 134.316 447.401H134.466C134.566 447.401 134.666 447.347 134.766 447.301L134.816 447.251C134.966 447.202 135.016 447.051 135.066 446.896C135.116 446.602 134.916 446.251 134.616 446.151ZM253.966 443.102C250.716 443.797 247.366 444.501 244.216 445.102H244.116C243.766 445.151 243.566 445.447 243.616 445.802C243.666 446.097 243.966 446.297 244.266 446.297H244.366C246.616 445.897 248.916 445.447 251.216 444.952C252.216 444.751 253.216 444.552 254.216 444.302C254.566 444.251 254.766 443.901 254.716 443.552C254.616 443.251 254.316 443.001 253.966 443.102ZM273.466 438.347C270.316 439.196 267.066 440.046 263.766 440.847C263.416 440.951 263.216 441.251 263.316 441.601C263.366 441.896 263.616 442.097 263.916 442.097C263.966 442.097 264.016 442.097 264.066 442.051C267.366 441.251 270.666 440.401 273.816 439.597C274.116 439.501 274.316 439.151 274.266 438.796C274.166 438.501 273.816 438.301 273.466 438.347ZM115.416 440.446C114.316 440.046 113.266 439.646 112.166 439.196C110.116 438.396 108.166 437.501 106.216 436.601C105.916 436.451 105.516 436.601 105.366 436.896C105.216 437.201 105.366 437.601 105.666 437.746C107.766 438.751 109.966 439.646 112.166 440.551C113.066 440.951 114.016 441.296 114.966 441.651H115.216C115.466 441.651 115.716 441.496 115.816 441.251C115.916 440.951 115.766 440.601 115.416 440.446ZM292.716 432.746C292.066 432.947 291.416 433.197 290.716 433.396C288.266 434.151 285.716 434.952 283.166 435.697C282.816 435.802 282.616 436.097 282.716 436.452C282.816 436.751 283.066 436.896 283.316 436.896H283.516C286.016 436.151 288.566 435.401 290.966 434.646C291.716 434.396 292.416 434.197 293.116 433.952C293.416 433.852 293.616 433.501 293.516 433.146C293.416 432.852 293.066 432.651 292.716 432.746ZM97.316 432.001L96.966 431.751C94.166 430.152 91.466 428.452 88.866 426.652C88.616 426.452 88.216 426.552 88.016 426.852C87.816 427.097 87.916 427.501 88.166 427.702C90.766 429.447 93.516 431.202 96.316 432.852L96.716 433.102C96.816 433.147 96.916 433.147 97.016 433.147C97.266 433.147 97.466 433.052 97.566 432.852C97.766 432.547 97.616 432.147 97.316 432.001ZM311.716 426.296C308.566 427.451 305.366 428.551 302.266 429.646C301.916 429.751 301.766 430.102 301.866 430.401C301.966 430.696 302.166 430.847 302.466 430.847C302.516 430.847 302.566 430.847 302.666 430.801C305.816 429.751 308.966 428.597 312.116 427.451C312.466 427.347 312.616 427.001 312.516 426.651C312.366 426.296 311.966 426.151 311.716 426.296ZM331.216 419.302C331.066 418.952 330.716 418.797 330.416 418.952C327.366 420.202 324.216 421.497 321.066 422.702C320.766 422.852 320.616 423.197 320.716 423.552C320.816 423.797 321.066 423.952 321.316 423.952C321.366 423.952 321.466 423.902 321.566 423.902C324.716 422.652 327.866 421.352 330.866 420.102C331.216 419.952 331.366 419.597 331.216 419.302ZM80.866 420.697C79.716 419.801 78.566 418.852 77.516 417.947C76.066 416.697 74.716 415.401 73.366 414.151C73.116 413.901 72.716 413.901 72.466 414.151C72.216 414.396 72.216 414.801 72.466 415.046C74.066 416.551 75.716 418.051 77.466 419.501C78.316 420.246 79.166 421.001 80.066 421.697C80.166 421.801 80.316 421.852 80.466 421.852C80.666 421.852 80.816 421.751 80.966 421.602C81.166 421.352 81.116 420.951 80.866 420.697ZM349.616 411.097C349.466 410.751 349.066 410.647 348.766 410.802C345.866 412.147 342.916 413.552 339.616 415.001C339.316 415.102 339.166 415.501 339.316 415.802C339.416 416.052 339.666 416.202 339.866 416.202C339.966 416.202 340.066 416.151 340.116 416.097C343.416 414.647 346.416 413.302 349.316 411.897C349.616 411.751 349.766 411.401 349.616 411.097ZM66.466 406.896C64.266 404.396 62.166 401.751 60.266 399.102C60.066 398.797 59.666 398.751 59.366 398.952C59.116 399.151 59.066 399.551 59.266 399.801C61.016 402.301 62.966 404.751 64.966 407.097C65.166 407.301 65.316 407.547 65.516 407.746C65.616 407.852 65.816 407.947 65.966 407.947C66.116 407.947 66.266 407.901 66.416 407.801C66.616 407.602 66.666 407.347 66.566 407.097C66.566 407.001 66.516 406.947 66.466 406.896ZM367.566 402.051C367.416 401.751 367.016 401.651 366.716 401.801C363.866 403.347 360.816 404.901 357.816 406.401C357.516 406.551 357.416 406.852 357.516 407.097C357.466 407.146 357.516 407.201 357.516 407.251C357.616 407.451 357.866 407.602 358.066 407.602C358.166 407.602 358.266 407.546 358.366 407.501C358.616 407.347 358.916 407.251 359.166 407.097C361.966 405.751 364.666 404.301 367.316 402.901C367.616 402.746 367.716 402.347 367.566 402.051ZM385.066 392.202C384.916 391.896 384.516 391.801 384.216 391.947C383.666 392.251 383.166 392.602 382.616 392.901C380.316 394.301 377.966 395.646 375.516 397.001C375.216 397.146 375.116 397.547 375.316 397.852C375.416 398.051 375.616 398.146 375.866 398.146C375.966 398.146 376.066 398.146 376.166 398.102C379.116 396.401 382.066 394.702 384.866 393.051C384.916 393.001 384.966 392.947 385.016 392.901C385.216 392.702 385.216 392.452 385.066 392.202ZM54.866 390.697C53.166 387.852 51.616 384.847 50.266 381.852C50.116 381.551 49.716 381.401 49.416 381.551C49.116 381.697 48.966 382.051 49.116 382.401C50.516 385.401 52.066 388.451 53.766 391.352C53.866 391.551 54.066 391.651 54.316 391.651C54.416 391.651 54.516 391.602 54.616 391.551C54.916 391.401 55.016 391.001 54.866 390.697ZM402.116 381.602C402.116 381.552 402.066 381.497 402.066 381.452C401.866 381.152 401.466 381.097 401.216 381.251C401.016 381.352 400.866 381.497 400.666 381.602C399.266 382.547 397.766 383.552 396.316 384.447C395.166 385.247 393.966 386.001 392.816 386.751C392.516 386.897 392.416 387.302 392.616 387.602C392.716 387.802 392.916 387.902 393.116 387.902C393.216 387.902 393.366 387.852 393.466 387.802C395.216 386.697 396.916 385.602 398.616 384.447C399.716 383.751 400.816 383.052 401.916 382.302C402.116 382.147 402.216 381.852 402.116 381.602ZM418.416 369.801C418.216 369.501 417.816 369.446 417.566 369.646C414.916 371.651 412.166 373.651 409.466 375.601C409.166 375.801 409.116 376.151 409.316 376.451C409.466 376.601 409.616 376.696 409.816 376.696C409.966 376.696 410.066 376.696 410.216 376.601C412.916 374.646 415.666 372.651 418.316 370.646C418.616 370.446 418.666 370.046 418.416 369.801ZM43.566 363.051C43.466 362.701 43.116 362.501 42.766 362.602C42.466 362.701 42.266 363.051 42.316 363.347C43.216 366.651 44.216 369.901 45.316 373.001C45.416 373.301 45.616 373.451 45.916 373.451C45.966 373.451 46.016 373.451 46.116 373.396C46.416 373.301 46.616 372.946 46.466 372.601C45.366 369.501 44.416 366.296 43.566 363.051ZM434.066 357.097C433.816 356.852 433.416 356.852 433.166 357.052C430.716 359.152 428.166 361.297 425.466 363.501C425.216 363.702 425.166 364.102 425.366 364.352C425.516 364.501 425.666 364.597 425.866 364.597C426.016 364.597 426.116 364.552 426.266 364.447C428.966 362.302 431.566 360.102 433.966 358.001C434.266 357.747 434.266 357.402 434.066 357.097ZM40.016 343.347C40.016 343.051 39.716 342.746 39.366 342.801C39.016 342.852 38.766 343.146 38.816 343.501C39.166 346.896 39.616 350.246 40.166 353.501C40.216 353.796 40.516 353.996 40.816 353.996H40.916C41.266 353.951 41.466 353.651 41.416 353.301C40.866 350.046 40.366 346.751 40.016 343.347ZM448.766 343.452C448.516 343.197 448.116 343.197 447.866 343.452C445.566 345.751 443.116 348.102 440.666 350.401C440.416 350.602 440.366 351.001 440.616 351.251C440.716 351.401 440.916 351.452 441.066 351.452C441.216 351.452 441.366 351.401 441.516 351.297C443.966 348.996 446.416 346.651 448.766 344.302C449.016 344.052 449.016 343.651 448.766 343.452ZM462.316 328.597C462.066 328.347 461.666 328.396 461.416 328.651C459.366 331.151 457.116 333.702 454.816 336.202C454.566 336.452 454.616 336.852 454.866 337.097C454.966 337.202 455.116 337.251 455.266 337.251C455.466 337.251 455.616 337.146 455.716 337.051C458.066 334.501 460.316 331.947 462.416 329.447C462.616 329.197 462.566 328.797 462.316 328.597ZM39.266 327.852C39.266 326.401 39.266 324.901 39.316 323.396C39.316 323.051 39.066 322.746 38.716 322.746C38.366 322.746 38.066 323.001 38.066 323.347C38.016 324.847 38.016 326.352 38.016 327.852C38.016 329.751 38.066 331.602 38.116 333.451C38.116 333.751 38.416 334.051 38.716 334.051H38.766C39.116 333.996 39.366 333.751 39.366 333.396C39.316 331.551 39.266 329.701 39.266 327.852ZM474.416 312.602C474.116 312.401 473.766 312.452 473.566 312.746C471.716 315.447 469.716 318.197 467.716 320.847C467.466 321.151 467.566 321.551 467.816 321.751C467.916 321.801 468.066 321.852 468.216 321.852C468.366 321.852 468.566 321.801 468.716 321.602C470.716 318.952 472.716 316.202 474.566 313.452C474.766 313.146 474.716 312.746 474.416 312.602ZM40.416 302.747C40.016 302.652 39.766 302.902 39.716 303.251C39.266 306.652 38.916 310.001 38.616 313.302C38.616 313.652 38.866 313.952 39.216 313.952H39.266C39.566 313.952 39.866 313.702 39.866 313.397C40.166 310.102 40.516 306.751 40.966 303.452C41.016 303.102 40.766 302.747 40.416 302.747ZM484.666 295.302C484.366 295.202 484.016 295.302 483.816 295.602C482.366 298.452 480.716 301.402 478.966 304.302C478.766 304.597 478.866 305.001 479.166 305.202C479.266 305.247 479.366 305.247 479.466 305.247C479.716 305.247 479.916 305.152 480.016 304.952C481.816 302.001 483.466 299.052 484.966 296.152C485.116 295.847 484.966 295.447 484.666 295.302ZM44.016 282.947C43.666 282.901 43.366 283.102 43.266 283.451C42.566 286.751 41.866 290.046 41.266 293.301C41.216 293.651 41.466 293.951 41.766 294.051H41.916C42.216 294.051 42.466 293.852 42.516 293.551C43.116 290.301 43.766 287.001 44.516 283.701C44.566 283.347 44.366 283.051 44.016 282.947ZM492.566 276.852C492.216 276.751 491.866 276.897 491.766 277.251C490.716 280.302 489.466 283.452 488.116 286.552C487.966 286.897 488.116 287.251 488.466 287.401C488.516 287.401 488.616 287.452 488.716 287.452C488.916 287.452 489.166 287.302 489.266 287.052C490.616 283.901 491.866 280.751 492.916 277.651C493.066 277.347 492.866 277.001 492.566 276.852ZM49.216 263.551C48.916 263.452 48.566 263.651 48.466 263.996C47.466 267.202 46.516 270.447 45.666 273.651C45.616 273.996 45.816 274.352 46.116 274.396C46.166 274.447 46.216 274.447 46.316 274.447C46.566 274.447 46.816 274.251 46.916 273.996C47.716 270.801 48.666 267.547 49.666 264.352C49.766 263.996 49.566 263.651 49.216 263.551ZM497.866 257.501C497.516 257.402 497.216 257.652 497.116 257.947C496.416 261.152 495.566 264.397 494.666 267.702C494.616 268.001 494.766 268.347 495.116 268.452C495.166 268.452 495.216 268.501 495.266 268.501C495.566 268.501 495.816 268.302 495.866 268.001C496.766 264.751 497.616 261.452 498.366 258.251C498.416 257.902 498.216 257.547 497.866 257.501ZM55.766 244.552C55.416 244.447 55.066 244.597 54.966 244.902C53.766 248.052 52.616 251.251 51.566 254.397C51.416 254.701 51.616 255.046 51.916 255.201H52.116C52.416 255.201 52.616 255.046 52.716 254.802C53.816 251.652 54.966 248.451 56.116 245.352C56.216 245.046 56.066 244.647 55.766 244.552ZM501.466 237.702C501.166 237.652 500.816 237.902 500.766 238.251C500.316 241.552 499.766 244.847 499.166 248.147C499.116 248.501 499.316 248.796 499.666 248.902H499.766C500.066 248.902 500.316 248.702 500.416 248.397C501.016 245.046 501.566 241.697 502.016 238.452C502.016 238.102 501.816 237.747 501.466 237.702ZM63.366 225.952C63.066 225.802 62.716 225.952 62.566 226.297C61.216 229.352 59.866 232.452 58.616 235.552C58.516 235.847 58.666 236.251 58.966 236.352C59.066 236.402 59.116 236.402 59.216 236.402C59.466 236.402 59.666 236.251 59.766 236.001C61.016 232.947 62.366 229.847 63.716 226.802C63.866 226.452 63.716 226.097 63.366 225.952ZM503.216 217.701C502.916 217.746 502.616 217.946 502.566 218.302C502.416 221.651 502.216 225.001 501.916 228.302C501.866 228.651 502.116 228.951 502.466 228.996H502.516C502.816 228.996 503.116 228.751 503.116 228.396C503.466 225.101 503.666 221.751 503.816 218.347C503.866 218.052 503.566 217.746 503.216 217.701ZM72.016 207.802C71.716 207.652 71.316 207.747 71.166 208.052C69.666 211.052 68.166 214.102 66.766 217.097C66.616 217.451 66.766 217.802 67.066 217.947C67.166 218.001 67.216 218.001 67.316 218.001C67.566 218.001 67.766 217.902 67.866 217.652C69.316 214.647 70.816 211.602 72.316 208.652C72.466 208.302 72.316 207.947 72.016 207.802ZM503.816 198.246C503.816 197.901 503.516 197.651 503.166 197.651C502.816 197.651 502.566 197.951 502.566 198.301C502.716 201.601 502.816 204.951 502.816 208.301C502.816 208.651 503.116 208.951 503.416 208.951C503.766 208.951 504.066 208.651 504.066 208.301C504.066 204.951 503.966 201.551 503.816 198.246ZM81.516 190.051C81.216 189.901 80.816 190.001 80.666 190.301C78.966 193.246 77.366 196.251 75.816 199.151C75.666 199.451 75.766 199.801 76.066 199.951C76.166 200.001 76.266 200.051 76.366 200.051C76.566 200.051 76.816 199.951 76.916 199.701C78.466 196.851 80.066 193.851 81.766 190.901C81.916 190.601 81.816 190.251 81.516 190.051ZM501.916 178.151C501.866 177.802 501.566 177.552 501.216 177.651C500.866 177.701 500.666 178.001 500.716 178.347C501.166 181.651 501.566 185.001 501.866 188.302C501.916 188.651 502.166 188.851 502.516 188.851H502.566C502.916 188.851 503.166 188.552 503.116 188.201C502.816 184.851 502.416 181.501 501.916 178.151ZM91.766 172.802C91.516 172.602 91.116 172.702 90.916 173.001C89.166 175.847 87.416 178.702 85.716 181.602C85.516 181.902 85.616 182.251 85.916 182.452C86.016 182.501 86.116 182.552 86.216 182.552C86.466 182.552 86.666 182.452 86.766 182.251C88.466 179.352 90.216 176.501 91.966 173.652C92.166 173.347 92.066 173.001 91.766 172.802ZM500.216 167.852H500.166C499.616 164.702 498.866 161.552 498.116 158.347C498.066 158.001 497.716 157.802 497.366 157.902C497.066 157.952 496.816 158.302 496.916 158.652C497.666 161.702 498.316 164.751 498.916 167.802C498.966 168.001 499.016 168.247 499.066 168.452C499.116 168.751 499.366 168.952 499.666 168.952H499.766C500.116 168.852 500.316 168.552 500.266 168.202C500.266 168.102 500.216 167.952 500.216 167.852ZM103.016 155.651C102.766 155.451 102.366 155.501 102.166 155.802L101.916 156.151C100.066 158.901 98.166 161.701 96.366 164.496C96.166 164.802 96.216 165.201 96.516 165.401C96.616 165.451 96.766 165.501 96.866 165.501C97.066 165.501 97.266 165.401 97.366 165.201C99.216 162.401 101.066 159.597 102.966 156.852L103.216 156.501C103.366 156.251 103.316 155.847 103.016 155.651ZM494.816 146.351C494.066 143.851 493.266 141.401 492.466 139.001C492.366 138.651 491.966 138.501 491.666 138.601C491.316 138.751 491.166 139.101 491.266 139.401C492.216 142.151 493.116 144.951 493.966 147.801C494.066 148.201 494.216 148.551 494.316 148.951C494.416 149.251 494.666 149.401 494.916 149.401H495.116C495.416 149.301 495.616 148.951 495.516 148.601C495.316 147.851 495.066 147.096 494.816 146.351ZM114.566 139.201C114.266 139.001 113.866 139.052 113.666 139.352C111.766 142.052 109.816 144.751 107.866 147.552C107.666 147.802 107.766 148.201 108.016 148.401C108.166 148.501 108.266 148.501 108.416 148.501C108.566 148.501 108.766 148.451 108.916 148.246C110.816 145.501 112.766 142.751 114.716 140.052C114.916 139.751 114.816 139.402 114.566 139.201ZM126.466 123.001C126.166 122.802 125.816 122.852 125.566 123.102C123.566 125.747 121.566 128.451 119.566 131.201C119.366 131.451 119.466 131.852 119.716 132.052C119.816 132.152 119.966 132.201 120.066 132.201C120.266 132.201 120.466 132.097 120.616 131.902C122.566 129.201 124.566 126.501 126.566 123.852C126.766 123.602 126.716 123.202 126.466 123.001ZM488.916 129.552C488.616 128.802 488.266 128.001 487.916 127.201C487.766 126.802 487.566 126.351 487.366 125.902C486.616 124.052 485.766 122.152 484.916 120.302C484.766 120.001 484.416 119.851 484.066 120.001C483.766 120.152 483.616 120.501 483.766 120.802C484.366 122.097 484.966 123.402 485.516 124.701C485.916 125.552 486.266 126.402 486.566 127.201C486.966 128.052 487.316 128.852 487.616 129.701C487.666 129.802 487.716 129.901 487.766 130.001C487.866 130.251 488.066 130.401 488.316 130.401C488.416 130.401 488.466 130.401 488.566 130.352C488.816 130.251 489.016 130.001 488.966 129.701C488.966 129.651 488.966 129.597 488.916 129.552ZM138.816 107.097C138.516 106.902 138.166 106.951 137.916 107.201C135.866 109.701 133.916 112.302 131.916 114.851C131.866 114.952 131.766 115.001 131.716 115.101C131.466 115.402 131.516 115.802 131.816 116.001C131.916 116.101 132.066 116.152 132.166 116.152C132.316 116.152 132.466 116.101 132.566 116.001C132.616 115.952 132.616 115.951 132.666 115.902C134.766 113.201 136.816 110.601 138.916 108.001C139.116 107.751 139.066 107.351 138.816 107.097ZM480.516 111.251C479.866 110.052 479.266 108.902 478.616 107.751C477.666 105.952 476.666 104.202 475.616 102.452C475.466 102.152 475.066 102.052 474.766 102.202C474.466 102.402 474.366 102.751 474.566 103.052C475.616 104.852 476.616 106.702 477.666 108.602C478.216 109.652 478.816 110.747 479.366 111.852C479.516 112.052 479.716 112.152 479.916 112.152C480.016 112.152 480.116 112.152 480.216 112.097C480.516 111.952 480.666 111.552 480.516 111.251ZM151.666 91.6515C151.366 91.4515 151.016 91.5015 150.766 91.7515C148.616 94.2515 146.416 96.8015 144.266 99.4015C144.066 99.7015 144.066 100.101 144.366 100.301C144.466 100.401 144.616 100.451 144.766 100.451C144.916 100.451 145.116 100.351 145.216 100.201C147.366 97.6015 149.566 95.0515 151.716 92.5515C151.916 92.3015 151.916 91.9015 151.666 91.6515ZM470.316 93.8515C468.516 91.0515 466.616 88.3015 464.666 85.5515C464.466 85.2515 464.066 85.2015 463.766 85.4015C463.516 85.6015 463.416 86.0015 463.616 86.3015C465.566 89.0015 467.516 91.7515 469.316 94.5515C469.416 94.7015 469.616 94.8015 469.816 94.8015C469.916 94.8015 470.066 94.8015 470.166 94.7015C470.466 94.5515 470.516 94.1515 470.316 93.8515ZM165.066 76.7015C164.816 76.5015 164.416 76.5015 164.216 76.7515C161.916 79.1515 159.666 81.6515 157.416 84.1515C157.166 84.4515 157.216 84.8015 157.466 85.0515C157.566 85.1515 157.716 85.2015 157.866 85.2015C158.016 85.2015 158.216 85.1515 158.316 85.0015C160.566 82.5015 162.866 80.0015 165.116 77.6015C165.366 77.3515 165.316 76.9515 165.066 76.7015ZM458.566 77.5515C456.466 74.9015 454.266 72.3015 452.066 69.8015C451.866 69.5515 451.466 69.5515 451.216 69.7515C450.916 70.0015 450.916 70.4015 451.166 70.6515C453.316 73.1015 455.516 75.7015 457.566 78.3015C457.716 78.4515 457.866 78.5515 458.066 78.5515C458.216 78.5515 458.316 78.5015 458.466 78.4015C458.716 78.2015 458.766 77.8015 458.566 77.5515ZM179.166 62.4015C178.916 62.1515 178.566 62.1515 178.316 62.4015C175.966 64.6515 173.566 67.0515 171.166 69.4965C170.916 69.7515 170.916 70.1515 171.166 70.3515C171.266 70.5015 171.416 70.5515 171.616 70.5515C171.766 70.5515 171.916 70.5015 172.066 70.3515C174.416 67.9515 176.816 65.5515 179.166 63.3015C179.416 63.0515 179.416 62.6515 179.166 62.4015ZM445.266 62.4515C442.916 60.0515 440.516 57.6515 438.066 55.4015C437.816 55.1515 437.416 55.1515 437.166 55.4015C436.966 55.6515 436.966 56.0515 437.216 56.3015C439.666 58.5515 442.066 60.9515 444.366 63.3015C444.466 63.4015 444.616 63.5015 444.816 63.5015C444.966 63.5015 445.116 63.4515 445.216 63.3015C445.466 63.0515 445.466 62.6515 445.266 62.4515ZM194.066 48.9015C193.816 48.6515 193.416 48.6015 193.166 48.8515C191.366 50.4015 189.566 51.9515 187.816 53.5515C187.366 53.9015 186.966 54.3015 186.566 54.7015C186.266 54.9515 185.916 55.2015 185.616 55.5015C185.366 55.7465 185.366 56.1515 185.566 56.4015C185.716 56.5015 185.866 56.6015 186.066 56.6015C186.216 56.6015 186.366 56.5515 186.466 56.4515C187.016 55.9515 187.566 55.4515 188.116 54.9515L189.916 53.3015C191.266 52.0965 192.616 50.9515 193.966 49.8015C194.216 49.5515 194.266 49.1515 194.066 48.9015ZM430.566 48.7015C428.016 46.5015 425.366 44.4015 422.766 42.3515C422.466 42.1515 422.066 42.2015 421.866 42.4515C421.666 42.7515 421.716 43.1515 421.966 43.3465C424.616 45.3515 427.216 47.5015 429.766 49.6515C429.866 49.7515 430.016 49.8015 430.166 49.8015C430.316 49.8015 430.516 49.7015 430.616 49.5515C430.866 49.3015 430.816 48.9015 430.566 48.7015ZM209.766 36.4015C209.566 36.1515 209.166 36.0515 208.916 36.3015C206.266 38.2015 203.616 40.3015 200.916 42.4015C200.666 42.6515 200.616 43.0015 200.816 43.3015C200.966 43.4515 201.116 43.5515 201.316 43.5515C201.466 43.5515 201.566 43.5015 201.716 43.4015C204.366 41.2515 207.016 39.2015 209.666 37.3015C209.916 37.0965 209.966 36.7015 209.766 36.4015ZM414.616 36.4015C411.866 34.4515 409.066 32.6015 406.216 30.8015C405.966 30.6515 405.566 30.7015 405.366 31.0015C405.166 31.3015 405.266 31.7015 405.566 31.8515C408.366 33.6515 411.166 35.5015 413.916 37.4015C414.016 37.5015 414.166 37.5015 414.266 37.5015C414.466 37.5015 414.666 37.4515 414.766 37.2515C414.966 36.9515 414.916 36.6015 414.616 36.4015ZM226.466 25.2015C226.266 24.9515 225.866 24.8515 225.616 25.0015C222.766 26.7515 219.916 28.5515 217.116 30.4515C216.816 30.6515 216.766 31.0515 216.966 31.3515C217.066 31.5015 217.266 31.6015 217.466 31.6015C217.616 31.6015 217.716 31.5515 217.816 31.5015C220.616 29.5965 223.416 27.8015 226.266 26.1015C226.566 25.9015 226.616 25.5015 226.466 25.2015ZM397.616 25.6515C394.666 24.0015 391.666 22.3515 388.716 20.8465C388.416 20.7015 388.016 20.8465 387.866 21.1515C387.716 21.4515 387.866 21.8015 388.166 21.9965C391.116 23.5015 394.066 25.0515 396.966 26.7015C397.066 26.8015 397.166 26.8015 397.266 26.8015C397.516 26.8015 397.716 26.7015 397.816 26.5015C398.016 26.2015 397.916 25.8015 397.616 25.6515ZM244.116 15.7015C243.966 15.3515 243.616 15.2515 243.266 15.4015C240.316 16.8015 237.266 18.3465 234.316 19.9515C234.016 20.1515 233.916 20.5015 234.066 20.8015C234.166 21.0515 234.416 21.1515 234.616 21.1515C234.716 21.1515 234.816 21.1015 234.916 21.0515C237.866 19.4515 240.866 17.9515 243.816 16.5015C244.116 16.3515 244.266 16.0015 244.116 15.7015ZM379.616 16.5015C376.566 15.1515 373.466 13.8015 370.366 12.5515C370.066 12.4515 369.666 12.6015 369.566 12.9015C369.416 13.2465 369.566 13.6015 369.916 13.7515C373.016 14.9515 376.116 16.3015 379.116 17.6515C379.216 17.7015 379.266 17.7015 379.366 17.7015C379.616 17.7015 379.866 17.5515 379.966 17.3515C380.116 16.9965 379.966 16.6515 379.616 16.5015ZM261.966 7.8015C258.816 8.8515 255.616 10.0515 252.516 11.3015C252.166 11.4515 252.016 11.8015 252.166 12.0965C252.266 12.3515 252.516 12.5015 252.716 12.5015C252.816 12.5015 252.916 12.5015 252.966 12.4515C256.066 11.2015 259.216 10.0015 262.366 8.9515C262.666 8.8515 262.866 8.5015 262.716 8.2015C262.616 7.8515 262.266 7.7015 261.966 7.8015ZM360.916 9.0515C357.716 7.9515 354.516 6.9515 351.316 6.0515C350.966 5.9515 350.616 6.1515 350.516 6.5015C350.416 6.8015 350.616 7.1515 350.966 7.2515C354.116 8.1515 357.366 9.1515 360.516 10.2515H360.716C360.966 10.2515 361.216 10.1015 361.316 9.8515C361.416 9.4965 361.266 9.1515 360.916 9.0515ZM281.416 2.6015C278.116 3.2465 274.816 4.0015 271.616 4.9015C271.266 4.9515 271.066 5.3015 271.166 5.6515C271.216 5.9015 271.466 6.1015 271.766 6.1015H271.916C275.116 5.2515 278.416 4.4965 281.666 3.8515C281.966 3.8015 282.216 3.4515 282.166 3.1015C282.066 2.8015 281.766 2.5515 281.416 2.6015ZM341.516 3.6015C338.216 2.9015 334.866 2.2515 331.616 1.7515C331.266 1.7015 330.916 1.9515 330.866 2.2515C330.816 2.6015 331.066 2.9515 331.416 3.0015C334.666 3.5015 337.966 4.1015 341.266 4.8015C341.316 4.8515 341.366 4.8515 341.366 4.8515C341.666 4.8515 341.916 4.6515 342.016 4.3515C342.066 4.0015 341.866 3.7015 341.516 3.6015ZM301.466 0.151499H301.416C298.066 0.351499 294.666 0.651499 291.366 1.0515C291.016 1.1015 290.766 1.4015 290.816 1.7515C290.866 2.0515 291.116 2.3015 291.466 2.3015H291.516C294.816 1.9015 298.166 1.6015 301.516 1.4015C301.816 1.4015 302.116 1.1015 302.066 0.746499C302.066 0.451499 301.766 0.151499 301.466 0.151499ZM321.566 0.551499C318.266 0.251499 314.866 0.0514992 311.516 0.00149918C311.166 0.00149918 310.866 0.251499 310.866 0.601499C310.866 0.951499 311.116 1.2515 311.466 1.2515C314.816 1.3015 318.166 1.5015 321.466 1.8015H321.516C321.866 1.8015 322.116 1.5515 322.166 1.2015C322.166 0.846499 321.916 0.551499 321.566 0.551499Z" fill="#D8D5DB"/>
<path fill-rule="evenodd" clip-rule="evenodd" d="M501.317 135.051L494.817 146.351L493.967 147.801L484.562 164.051L482.517 167.651L422.217 272.051L412.217 289.351L402.217 272.051L366.467 210.151L360.967 200.651L348.712 179.401L320.017 129.701H504.417L501.317 135.051ZM315.717 127.201L348.712 184.351L358.112 200.651L363.617 210.151L399.362 272.051L412.217 294.351L425.117 272.051L484.762 168.701L486.862 165.101L503.167 136.901L507.667 129.051L508.067 128.401L508.767 127.201H315.717Z" fill="white"/>
<path fill-rule="evenodd" clip-rule="evenodd" d="M346.815 382.099C346.965 382.649 346.715 383.454 346.165 384.449C344.915 386.799 341.92 390.149 338.77 392.899C338.115 393.454 337.465 393.999 336.815 394.449C334.915 395.999 333.065 397.204 331.615 397.649C326.515 399.349 304.465 396.449 299.115 393.549C298.77 393.349 298.515 393.149 298.265 392.899C296.07 393.049 292.815 393.099 288.865 392.899C287.065 392.804 285.115 392.649 283.015 392.349C278.065 391.799 272.415 390.649 266.315 388.699C263.315 387.804 260.165 386.649 256.965 385.249C253.965 383.899 250.865 382.349 247.765 380.549C247.015 380.149 246.465 379.649 245.815 379.254C246.415 383.854 247.015 388.399 247.665 392.899C247.865 394.149 248.065 395.399 248.215 396.599C248.765 400.149 249.315 403.654 249.915 407.099C252.265 420.649 254.965 433.399 258.215 444.799C258.515 445.999 258.865 447.204 259.215 448.349C258.165 448.499 257.115 448.654 256.115 448.799C256.365 449.949 256.565 451.154 256.765 452.349C259.265 465.849 261.165 482.499 262.565 499.599C203.865 522.849 149.215 528.299 111.515 505.249C99.515 497.949 89.265 487.749 81.115 474.299C79.815 472.149 78.515 469.999 77.215 467.849C77.465 460.799 77.765 454.849 78.015 450.799C77.065 450.699 76.565 450.699 76.565 450.699C76.565 442.549 76.915 431.849 77.465 419.499C77.515 418.999 77.515 418.499 77.515 417.949C77.715 414.449 77.915 410.849 78.165 407.099C78.365 402.499 78.665 397.804 78.965 392.899C79.415 385.799 79.915 378.399 80.465 370.899C68.265 367.649 58.065 364.149 52.315 360.649C44.815 356.099 41.965 349.749 42.165 343.499C42.065 342.249 42.065 340.899 42.365 339.499C45.215 330.049 55.015 301.899 66.115 273.949L53.815 269.749C53.815 269.749 89.765 205.699 110.865 191.599C110.965 191.549 111.015 191.499 111.115 191.449C118.565 184.549 129.315 180.099 145.415 178.299C145.515 164.949 144.465 142.399 143.365 125.149C138.115 123.949 134.565 119.599 132.565 115.999C132.315 115.599 132.065 115.199 131.915 114.849C131.115 113.299 130.665 111.999 130.465 111.349C129.365 106.949 130.415 103.299 132.565 100.949C132.115 97.299 131.465 91.299 131.215 84.999C130.715 73.399 131.365 60.699 136.615 59.549C136.565 59.399 136.465 59.299 136.415 59.199C135.065 55.049 137.515 50.449 137.615 50.299L139.815 51.449C139.815 51.499 137.815 55.299 138.765 58.399C142.965 53.749 157.115 52.249 171.965 53.099C172.815 53.099 173.715 53.199 174.565 53.249C177.615 53.499 180.665 53.799 183.665 54.249C184.665 54.349 185.615 54.499 186.565 54.699C187.065 54.749 187.615 54.849 188.115 54.949C191.365 55.499 194.465 56.199 197.315 56.999C202.215 58.349 206.315 60.049 209.065 61.999C209.965 62.599 210.665 63.249 211.265 63.899C213.765 66.799 214.165 68.849 213.065 70.199C212.415 70.949 211.365 71.499 209.965 71.899C210.565 76.099 210.815 79.749 210.915 83.099C211.215 83.899 211.515 84.749 211.815 85.599C212.065 86.349 212.315 87.149 212.565 87.949C212.615 87.999 212.665 87.999 212.715 88.049C213.015 88.299 213.315 88.499 213.615 88.749C214.715 89.749 215.715 90.999 216.465 92.649L214.215 93.699C214.165 93.599 214.115 93.549 214.065 93.449C214.665 95.999 215.215 98.649 215.615 101.449C216.215 105.599 216.865 109.749 217.515 113.799C217.715 115.349 217.915 116.899 218.115 118.399C218.565 121.499 218.965 124.549 219.215 127.449C219.315 128.349 219.415 129.199 219.415 130.049C220.465 143.249 219.215 154.199 211.315 159.699C209.815 160.799 208.015 161.699 205.965 162.299C203.365 163.149 200.265 163.599 196.665 163.649C196.765 167.149 196.965 170.549 197.265 173.749C197.415 174.999 197.565 176.249 197.765 177.399C197.915 178.599 198.115 179.799 198.365 180.899C211.715 184.099 221.765 189.499 228.115 196.849C228.415 197.149 228.765 197.449 229.065 197.799C232.615 201.249 236.065 206.554 239.315 212.899C243.415 220.849 247.265 230.504 250.665 240.149C250.915 240.899 251.165 241.699 251.465 242.449C251.715 243.299 252.015 244.099 252.265 244.949C253.665 249.099 254.965 253.249 256.165 257.204C257.065 260.149 257.865 263.004 258.665 265.699C262.515 279.254 264.765 289.254 264.765 289.254L258.665 290.699L256.165 291.299L254.365 291.754C254.965 294.149 255.565 296.499 256.165 298.899C256.215 299.149 256.315 299.449 256.365 299.704C257.165 302.804 257.915 305.954 258.665 308.999C262.515 324.649 265.765 339.149 267.215 348.749C271.515 352.299 274.665 357.849 279.315 363.004C284.015 368.199 290.365 372.899 301.115 374.749C301.165 374.749 301.165 374.799 301.215 374.799C305.42 371.499 313.215 367.604 317.965 366.154C318.615 365.999 319.17 365.849 319.665 365.749C320.065 365.649 320.42 365.599 320.715 365.599C322.72 365.199 323.015 365.349 324.215 366.099C324.665 366.449 325.265 366.899 326.215 367.449C330.115 369.749 334.215 371.899 337.765 373.999C342.165 376.554 345.615 378.999 346.615 381.599C346.715 381.754 346.765 381.949 346.815 382.099Z" fill="#D1CDD3"/>
<path fill-rule="evenodd" clip-rule="evenodd" d="M361.669 367.426C358.104 365.292 359.144 365.021 355.114 365.762C350.764 366.566 341.404 371.057 336.669 374.797C336.619 374.792 336.584 374.766 336.534 374.757C315.094 371.081 311.324 355.917 302.654 348.737C297.849 317.257 273.639 231.587 273.639 231.587L237.159 245.152C242.474 281.247 263.864 349.897 269.414 365.387C270.324 367.262 271.499 368.751 272.814 369.962C274.634 373.807 277.904 377.517 283.189 380.572C305.059 393.217 325.759 393.392 333.679 392.887C333.934 393.142 334.224 393.362 334.554 393.547C339.919 396.477 361.929 399.346 367.069 397.661C372.294 395.947 382.994 385.117 382.224 382.117C380.974 377.217 370.604 372.777 361.669 367.426Z" fill="#FFAD69"/>
<path fill-rule="evenodd" clip-rule="evenodd" d="M240.904 208.447C230.604 231.597 234.389 304.952 234.389 304.952L300.214 289.262C300.214 289.262 268.064 147.377 240.904 208.447Z" fill="#377ADB"/>
<path fill-rule="evenodd" clip-rule="evenodd" d="M296.615 484.399C285.22 490.104 273.815 495.199 262.565 499.599C203.865 522.849 149.22 528.299 111.515 505.249C112.065 483.599 112.815 461.049 113.415 450.799C113.515 449.599 113.615 448.549 113.665 447.699L133.865 447.299H134.765L134.815 447.249L244.115 445.104H244.22L251.215 444.949L258.215 444.799L290.515 444.149C290.87 445.649 291.215 447.249 291.515 448.854C293.615 459.054 295.265 471.299 296.615 484.399Z" fill="#232323"/>
<path fill-rule="evenodd" clip-rule="evenodd" d="M192.55 177.429C153.28 178.724 140.005 191.979 133.235 214.904C125.545 240.934 112.005 398.154 112.005 450.689C112.005 450.689 229.53 459.019 294.635 448.344C274.22 379.389 272.015 255.409 271.605 218.469C271.3 190.759 242.33 175.784 192.55 177.429Z" fill="#4D8DFF"/>
<mask id="mask1_0_273" style="mask-type:luminance" maskUnits="userSpaceOnUse" x="4" y="0" width="533" height="521">
<path fill-rule="evenodd" clip-rule="evenodd" d="M4 520.035H536.615V0H4V520.035Z" fill="white"/>
</mask>
<g mask="url(#mask1_0_273)">
<path fill-rule="evenodd" clip-rule="evenodd" d="M198.965 314.3H256.165V244.95H198.965V314.3ZM196.465 316.8H258.665V242.45H196.465V316.8Z" fill="white"/>
<path fill-rule="evenodd" clip-rule="evenodd" d="M227.145 113.139C231.01 110.224 251.19 112.869 245.38 71.784C243.26 56.794 229.185 66.799 219.22 68.799C209.25 70.799 215.59 113.879 215.59 113.879L227.145 113.139Z" fill="#232323"/>
<path fill-rule="evenodd" clip-rule="evenodd" d="M176.901 103.298C178.576 114.188 181.926 173.103 180.531 186.788C179.136 200.473 245.316 204.378 236.656 189.303C228.001 174.223 234.146 124.238 234.146 124.238L176.901 103.298Z" fill="#FFAD69"/>
<path fill-rule="evenodd" clip-rule="evenodd" d="M181.48 104.963L234.135 124.243C234.135 124.243 230.58 153.353 232.725 173.853C192.575 170.748 182.27 120.038 181.595 110.273C181.48 108.433 181.425 106.658 181.48 104.963Z" fill="#D88344"/>
<path fill-rule="evenodd" clip-rule="evenodd" d="M251.041 101.443C255.921 135.077 264.206 168.618 223.436 163.092C182.661 157.573 176.331 105.298 176.446 95.4425C177.081 42.8275 241.446 35.3025 251.041 101.443Z" fill="#FFAD69"/>
<path fill-rule="evenodd" clip-rule="evenodd" d="M246.693 63.8865C237.098 52.7415 183.153 48.5365 174.223 58.4065C173.243 55.3065 175.243 51.4965 175.263 51.4615L173.063 50.2765C172.958 50.4665 170.523 55.0615 171.848 59.1915C171.893 59.3215 172.003 59.4115 172.048 59.5415C162.178 61.7165 168.478 104.597 168.478 104.597L180.033 103.857C183.898 100.947 197.313 80.4565 200.268 68.0915C221.393 71.6665 258.888 78.0515 246.693 63.8865Z" fill="#232323"/>
<path fill-rule="evenodd" clip-rule="evenodd" d="M240.956 368.613C236.826 368.843 220.801 371.628 215.176 370.323C196.271 365.908 147.551 344.053 121.326 331.838C137.461 296.813 161.211 234.823 161.211 234.823L123.866 223.863C106.536 255.968 82.6005 323.773 77.7805 339.508C77.5105 340.918 77.4905 342.243 77.5755 343.513C77.4055 349.738 80.2555 356.093 87.7405 360.653C108.501 373.298 186.816 385.568 208.506 387.963C208.906 388.773 209.436 389.508 210.296 389.993C215.601 392.973 239.741 395.203 244.706 396.083C250.931 397.183 269.826 398.783 269.011 396.253C267.676 392.108 260.671 367.508 240.956 368.613Z" fill="#FFAD69"/>
<path fill-rule="evenodd" clip-rule="evenodd" d="M146.28 191.618C125.215 205.698 89.2555 269.743 89.2555 269.743L153.29 291.618C153.29 291.618 201.85 154.478 146.28 191.618Z" fill="#4D8DFF"/>
<path fill-rule="evenodd" clip-rule="evenodd" d="M216.71 99.78C216.58 101.42 217.465 102.825 218.69 102.925C219.92 103.02 221.02 101.775 221.155 100.135C221.29 98.5 220.4 97.09 219.17 96.99C217.945 96.895 216.84 98.14 216.71 99.78Z" fill="#232323"/>
<path fill-rule="evenodd" clip-rule="evenodd" d="M242.682 100.469C242.552 102.109 243.437 103.514 244.662 103.614C245.892 103.709 246.992 102.464 247.127 100.824C247.257 99.1885 246.367 97.7785 245.142 97.6785C243.917 97.5835 242.812 98.8285 242.682 100.469Z" fill="#232323"/>
<path fill-rule="evenodd" clip-rule="evenodd" d="M210.321 90.576L208.226 89.211C212.646 82.441 220.066 84.011 220.386 84.081L219.841 86.521C219.601 86.471 213.776 85.281 210.321 90.576Z" fill="#232323"/>
<path fill-rule="evenodd" clip-rule="evenodd" d="M249.637 93.6935C246.992 87.9385 241.052 88.2535 240.817 88.2785L240.642 85.7835C240.962 85.7635 248.532 85.2985 251.907 92.6485L249.637 93.6935Z" fill="#232323"/>
<path fill-rule="evenodd" clip-rule="evenodd" d="M225.054 130.747C220.829 130.747 212.704 129.547 207.659 121.157L209.799 119.867C215.914 130.037 226.884 128.182 227.349 128.097L227.804 130.552C227.764 130.562 226.709 130.747 225.054 130.747Z" fill="#232323"/>
<path fill-rule="evenodd" clip-rule="evenodd" d="M244.278 119.355L232.138 119.19L232.173 116.69L240.928 116.81L235.523 98.375L237.918 97.67L244.278 119.355Z" fill="#D88344"/>
<path fill-rule="evenodd" clip-rule="evenodd" d="M186.788 107.578C190.468 115.878 195.083 123.908 183.518 125.398C171.953 126.893 166.573 113.908 165.918 111.363C162.418 97.7875 179.543 91.2575 186.788 107.578Z" fill="#FFAD69"/>
<path fill-rule="evenodd" clip-rule="evenodd" d="M499.891 407.084H21.451C17.546 407.084 14.351 403.889 14.351 399.984C14.351 396.079 17.546 392.884 21.451 392.884H499.891C503.796 392.884 506.991 396.079 506.991 399.984C506.991 403.889 503.796 407.084 499.891 407.084Z" fill="white"/>
<path fill-rule="evenodd" clip-rule="evenodd" d="M198.512 407.084H17.9015C13.9965 407.084 10.8015 403.889 10.8015 399.984C10.8015 396.079 13.9965 392.884 17.9015 392.884H198.512C202.417 392.884 205.612 396.079 205.612 399.984C205.612 403.889 202.417 407.084 198.512 407.084Z" fill="#D8D5DB"/>
<path fill-rule="evenodd" clip-rule="evenodd" d="M476.464 381.611H328.054C322.389 381.611 318.629 377.011 319.659 371.341L335.844 282.336C336.879 276.661 342.309 272.066 347.984 272.066H496.389C502.059 272.066 505.819 276.661 504.789 282.336L488.604 371.341C487.569 377.011 482.139 381.611 476.464 381.611Z" fill="#2B2B2B"/>
<path fill-rule="evenodd" clip-rule="evenodd" d="M480.091 381.611H331.681C326.016 381.611 322.256 377.011 323.286 371.341L339.471 282.336C340.501 276.661 345.936 272.066 351.606 272.066H500.011C505.686 272.066 509.446 276.661 508.416 282.336L492.226 371.341C491.196 377.011 485.761 381.611 480.091 381.611Z" fill="#232323"/>
<path fill-rule="evenodd" clip-rule="evenodd" d="M430.565 344.848H394.62L401.165 308.853H437.12L430.565 344.848ZM399.065 306.353L391.615 347.348H432.615L440.115 306.353H399.065Z" fill="white"/>
<path fill-rule="evenodd" clip-rule="evenodd" d="M302.025 384.457C302.025 389.092 305.82 392.887 310.46 392.887H465.705C470.345 392.887 474.14 389.092 474.14 384.457H302.025Z" fill="#232323"/>
<path fill-rule="evenodd" clip-rule="evenodd" d="M256.922 384.457C256.922 389.092 260.712 392.887 265.352 392.887H326.402C331.042 392.887 334.837 389.092 334.837 384.457H256.922Z" fill="#2B2B2B"/>
<path fill-rule="evenodd" clip-rule="evenodd" d="M427.45 108.227C422.195 108.227 417.935 112.492 417.935 117.747H436.97C436.97 112.492 432.71 108.227 427.45 108.227Z" fill="#377ADB"/>
<path fill-rule="evenodd" clip-rule="evenodd" d="M427.459 108.229V200.66C427.459 205.924 423.189 210.149 417.924 210.149H348.719V117.769C348.719 112.499 352.984 108.229 358.214 108.229H427.459Z" fill="#4D8DFF"/>
<path fill-rule="evenodd" clip-rule="evenodd" d="M408.431 200.659L339.191 200.649C339.191 205.904 343.456 210.164 348.716 210.164L417.921 210.149C412.661 210.149 408.431 205.924 408.431 200.659Z" fill="#6EA9FF"/>
<path fill-rule="evenodd" clip-rule="evenodd" d="M359.07 123.75H417.12V121.25H359.07V123.75Z" fill="white"/>
<path fill-rule="evenodd" clip-rule="evenodd" d="M359.07 133.22H417.12V130.72H359.07V133.22Z" fill="white"/>
<path fill-rule="evenodd" clip-rule="evenodd" d="M359.07 142.69H417.12V140.19H359.07V142.69Z" fill="white"/>
<path fill-rule="evenodd" clip-rule="evenodd" d="M359.07 152.16H417.12V149.66H359.07V152.16Z" fill="white"/>
<path fill-rule="evenodd" clip-rule="evenodd" d="M359.07 161.63H417.12V159.13H359.07V161.63Z" fill="white"/>
<path fill-rule="evenodd" clip-rule="evenodd" d="M359.07 171.1H417.12V168.6H359.07V171.1Z" fill="white"/>
<path fill-rule="evenodd" clip-rule="evenodd" d="M359.07 180.57H417.12V178.07H359.07V180.57Z" fill="white"/>
<path fill-rule="evenodd" clip-rule="evenodd" d="M359.07 190.04H417.12V187.54H359.07V190.04Z" fill="white"/>
<path fill-rule="evenodd" clip-rule="evenodd" d="M524.183 157.893C510.933 171.143 489.443 171.143 476.188 157.893C462.938 144.638 462.938 123.153 476.188 109.898C489.443 96.6425 510.933 96.6425 524.183 109.898C537.433 123.153 537.433 144.638 524.183 157.893Z" fill="#FFC84D"/>
<path fill-rule="evenodd" clip-rule="evenodd" d="M500.189 133.896L527.154 160.861C512.364 175.656 488.009 175.656 473.219 160.861C466.884 154.521 462.979 146.151 462.194 137.221L500.189 133.896Z" fill="#232323"/>
<path fill-rule="evenodd" clip-rule="evenodd" d="M500.189 133.896L462.309 138.311C461.809 134.036 462.039 129.706 462.989 125.501C463.934 121.301 465.584 117.291 467.874 113.641L500.189 133.896Z" fill="white"/>
<path fill-rule="evenodd" clip-rule="evenodd" d="M334.071 84.7995H305.321C301.611 84.7995 298.571 81.7645 298.571 78.0495V49.3045C298.571 45.5945 301.611 42.5545 305.321 42.5545H334.071C337.781 42.5545 340.821 45.5945 340.821 49.3045V78.0495C340.821 81.7645 337.781 84.7995 334.071 84.7995Z" fill="#232323"/>
<path fill-rule="evenodd" clip-rule="evenodd" d="M325.667 93.2025H296.917C293.207 93.2025 290.167 90.1675 290.167 86.4525V57.7075C290.167 53.9975 293.207 50.9575 296.917 50.9575H325.667C329.377 50.9575 332.417 53.9975 332.417 57.7075V86.4525C332.417 90.1675 329.377 93.2025 325.667 93.2025Z" fill="#FF4E4A"/>
</g>
</g>
<defs>
<filter id="filter0_d_0_273" x="0.000640869" y="0.00149918" width="540.614" height="528.034" filterUnits="userSpaceOnUse" color-interpolation-filters="sRGB">
<feFlood flood-opacity="0" result="BackgroundImageFix"/>
<feColorMatrix in="SourceAlpha" type="matrix" values="0 0 0 0 0 0 0 0 0 0 0 0 0 0 0 0 0 0 127 0" result="hardAlpha"/>
<feOffset dy="4"/>
<feGaussianBlur stdDeviation="2"/>
<feComposite in2="hardAlpha" operator="out"/>
<feColorMatrix type="matrix" values="0 0 0 0 0 0 0 0 0 0 0 0 0 0 0 0 0 0 0.25 0"/>
<feBlend mode="normal" in2="BackgroundImageFix" result="effect1_dropShadow_0_273"/>
<feBlend mode="normal" in="SourceGraphic" in2="effect1_dropShadow_0_273" result="shape"/>
</filter>
</defs>
</svg>
